:SAMPLES-PER-SECOND 30
:FULLY-SPECIFIED
:DEGREES
962
root  71.5046 38.6399 3.10078 -17.0607 -76.2556 19.7817
RightUpLeg  12.2244 -18.9299 -19.8587
RightLeg  13.6401 -7.92585 0.866386
RightFoot  -14.3036 0.321365 16.4583
RightToes  0.00048216 0.542163 -0.142577
Spine  7.52278 0.290716 0.62807
Spine1  4.33943 1.53219 -4.75964
HEad  -8.21689 -8.93102 4.01471
LeftShoulder1  7.36406 -11.2703 -43.3512
LeftArm  -13.5681 26.1218 -28.1459
LeftForeArm  30.5232 -17.1942 -3.24522
LeftHand  -0.25398 0.0180481 5.50724
RightShoulder  5.24741 8.95671 36.1282
RightArm  4.56958 -15.7556 35.6711
RightForeArm  2.24737 21.3522 4.9418
RightHand  -1.0979 1.85916 -17.6857
LeftUpLeg  -23.0214 18.9303 -6.67397
LeftLeg  22.9423 7.71604 3.90384
LeftFoot  -3.08841 -0.110959 1.78444
LeftToes  1.06246e-005 4.65856e-005 -8.18502e-006
963
root  70.7699 38.5787 3.91531 -18.8122 -74.8447 21.2847
RightUpLeg  11.3718 -20.629 -21.812
RightLeg  18.8795 -5.76396 -2.26079
RightFoot  -11.6412 -0.0336309 20.9568
RightToes  0.00048216 0.542163 -0.142577
Spine  8.31219 0.156494 -0.610523
Spine1  3.90712 1.3082 -4.90727
HEad  -7.88034 -9.96781 4.03248
LeftShoulder1  7.4068 -11.2658 -43.6311
LeftArm  -13.6851 25.7599 -27.9491
LeftForeArm  30.4476 -17.4598 -3.22204
LeftHand  -0.25398 0.0180481 5.50724
RightShoulder  5.38237 9.21875 36.3176
RightArm  3.12478 -16.1307 34.7464
RightForeArm  3.12077 21.315 4.87603
RightHand  -1.15636 2.02718 -18.2202
LeftUpLeg  -21.5547 17.8795 -8.02006
LeftLeg  24.1387 7.68923 4.08738
LeftFoot  -5.84314 -0.0564632 1.88562
LeftToes  1.06246e-005 4.65856e-005 -8.18502e-006
964
root  70.0412 38.6815 4.70545 -19.3349 -74.1637 21.5335
RightUpLeg  7.55671 -15.9376 -21.1568
RightLeg  27.4415 -11.1459 -6.54768
RightFoot  -5.89228 -0.911773 19.2154
RightToes  0.00048216 0.542163 -0.142577
Spine  8.79649 0.123409 -1.51753
Spine1  3.91715 1.11121 -4.49661
HEad  -7.46549 -10.7234 3.68794
LeftShoulder1  7.39585 -11.2538 -43.6004
LeftArm  -14.2068 25.5097 -28.3558
LeftForeArm  30.2104 -18.5099 -3.155
LeftHand  -0.25398 0.0180481 5.50724
RightShoulder  5.39623 9.31581 36.1098
RightArm  0.41955 -15.5776 34.3834
RightForeArm  5.74536 21.006 4.71858
RightHand  -1.27585 2.29555 -19.4262
LeftUpLeg  -19.199 17.5817 -8.74436
LeftLeg  23.5434 7.6438 3.9704
LeftFoot  -7.50331 -0.0115832 1.70252
LeftToes  1.06246e-005 4.65856e-005 -8.18502e-006
965
root  69.3179 38.8849 5.4286 -18.7904 -73.7908 20.6881
RightUpLeg  2.20281 -12.179 -19.8396
RightLeg  37.2512 -13.339 -10.8296
RightFoot  1.4252 -1.20171 10.883
RightToes  0.00048216 0.542163 -0.142577
Spine  9.22831 0.106282 -2.31839
Spine1  4.13979 0.83772 -3.49752
HEad  -7.34549 -11.3875 3.43265
LeftShoulder1  7.38982 -11.2798 -43.4819
LeftArm  -14.4006 25.0155 -28.7314
LeftForeArm  29.9211 -19.8496 -3.16045
LeftHand  -0.25398 0.0180481 5.50724
RightShoulder  5.30287 9.24422 35.6246
RightArm  -2.72524 -14.8481 34.4348
RightForeArm  7.74412 21.9988 4.54793
RightHand  -1.9677 4.45109 -23.0906
LeftUpLeg  -16.4555 17.8923 -8.98177
LeftLeg  21.9049 7.14115 3.49408
LeftFoot  -8.28164 -0.00173988 1.93904
LeftToes  1.06246e-005 4.65856e-005 -8.18502e-006
966
root  68.6214 39.075 6.06239 -17.4583 -73.3448 19.0321
RightUpLeg  -3.18869 -9.35678 -18.1213
RightLeg  44.7636 -9.91375 -10.5733
RightFoot  6.02148 -0.66875 4.45528
RightToes  0.00048216 0.542163 -0.142577
Spine  9.85108 0.00516544 -3.10932
Spine1  4.45461 0.40769 -2.40396
HEad  -7.5926 -11.8127 3.30288
LeftShoulder1  7.46032 -11.3769 -43.6179
LeftArm  -13.9979 24.0249 -28.4452
LeftForeArm  29.96 -21.0991 -3.21958
LeftHand  -0.25398 0.0180481 5.50724
RightShoulder  5.16458 9.04203 35.2016
RightArm  -5.43944 -14.3647 34.4311
RightForeArm  8.54741 24.9199 4.87101
RightHand  -4.07392 10.2318 -29.7933
LeftUpLeg  -13.8238 18.2442 -8.8269
LeftLeg  20.2974 6.49036 2.95562
LeftFoot  -9.05591 0.00784502 2.33534
LeftToes  1.06246e-005 4.65856e-005 -8.18502e-006
967
root  67.9172 39.2312 6.64042 -15.5173 -72.9042 16.774
RightUpLeg  -8.0215 -7.10172 -16.0921
RightLeg  49.3714 -4.53914 -6.01975
RightFoot  6.13672 -0.701576 4.8755
RightToes  0.00048216 0.542163 -0.142577
Spine  10.538 -0.235329 -3.72722
Spine1  4.74472 -0.166504 -1.55694
HEad  -7.7678 -11.8675 3.07628
LeftShoulder1  7.51318 -11.4437 -43.7375
LeftArm  -13.7891 22.9805 -27.8969
LeftForeArm  30.6406 -22.562 -3.31746
LeftHand  -0.25398 0.0180481 5.50724
RightShoulder  5.02057 8.77554 34.9266
RightArm  -6.75746 -13.6963 34.2497
RightForeArm  9.90872 28.2563 5.57461
RightHand  -7.32194 17.3048 -36.7131
LeftUpLeg  -11.2071 17.6049 -8.046
LeftLeg  18.8803 6.79589 2.2643
LeftFoot  -9.96414 0.0316449 2.31983
LeftToes  1.06246e-005 4.65856e-005 -8.18502e-006
968
root  67.1704 39.3566 7.1875 -13.6395 -72.7205 14.6336
RightUpLeg  -12.43 -5.69138 -13.8935
RightLeg  51.5374 -1.6955 -2.70598
RightFoot  4.29972 -1.08594 8.10059
RightToes  0.00048216 0.542163 -0.142577
Spine  11.2247 -0.509799 -4.38386
Spine1  4.69297 -0.782016 -0.884038
HEad  -7.44039 -11.6143 2.84603
LeftShoulder1  7.45723 -11.4158 -43.479
LeftArm  -14.4449 22.538 -27.6833
LeftForeArm  31.5973 -24.54 -3.58602
LeftHand  -0.25398 0.0180481 5.50724
RightShoulder  4.89679 8.56234 34.6276
RightArm  -6.05199 -12.2976 34.0721
RightForeArm  12.2339 29.8571 5.82604
RightHand  -8.90033 20.1775 -39.3864
LeftUpLeg  -8.51954 14.7854 -6.65488
LeftLeg  17.5769 9.38058 1.1663
LeftFoot  -10.8083 0.0559098 1.9592
LeftToes  1.06246e-005 4.65856e-005 -8.18502e-006
969
root  66.3735 39.5045 7.74175 -11.4388 -72.8964 12.1612
RightUpLeg  -16.3241 -5.40144 -11.2074
RightLeg  51.016 -2.52826 -3.68791
RightFoot  2.99057 -1.04644 8.44619
RightToes  0.00048216 0.542163 -0.142577
Spine  12.0328 -0.733361 -4.69654
Spine1  4.05124 -1.2637 -0.167466
HEad  -6.70473 -11.0794 2.93062
LeftShoulder1  7.3897 -11.4207 -43.0479
LeftArm  -15.2813 22.5509 -27.6217
LeftForeArm  31.9492 -26.428 -3.97278
LeftHand  -0.25398 0.0180481 5.50724
RightShoulder  4.82324 8.48536 34.2795
RightArm  -4.18623 -10.2956 33.9273
RightForeArm  14.7994 29.0924 5.50321
RightHand  -6.56691 15.8258 -34.9646
LeftUpLeg  -5.62223 11.308 -5.20411
LeftLeg  15.713 12.8615 -0.0811989
LeftFoot  -11.3848 0.0693419 1.8227
LeftToes  1.06246e-005 4.65856e-005 -8.18502e-006
970
root  65.5519 39.6403 8.30821 -8.78279 -73.3291 9.17809
RightUpLeg  -19.4942 -5.86078 -8.03965
RightLeg  47.7651 -4.96316 -6.14412
RightFoot  1.99819 -0.674189 5.86842
RightToes  0.00048216 0.542163 -0.142577
Spine  12.8807 -0.850525 -4.35481
Spine1  3.28273 -1.47077 0.304914
HEad  -6.12708 -10.4801 3.35357
LeftShoulder1  7.4215 -11.5723 -42.7835
LeftArm  -15.4354 22.1124 -27.3098
LeftForeArm  31.5936 -27.2565 -4.17019
LeftHand  -0.25398 0.0180481 5.50724
RightShoulder  4.80525 8.51679 34.027
RightArm  -2.23926 -8.268 33.8242
RightForeArm  17.3827 27.0514 4.88958
RightHand  -2.23985 5.10016 -23.9491
LeftUpLeg  -2.62579 8.27885 -4.02488
LeftLeg  13.4738 16.1894 -1.14391
LeftFoot  -11.9979 0.0826053 1.83832
LeftToes  1.06246e-005 4.65856e-005 -8.18502e-006
971
root  64.6868 39.6613 8.87296 -6.6539 -73.8159 6.73577
RightUpLeg  -21.6975 -6.80286 -4.97594
RightLeg  41.7545 -6.45713 -6.44639
RightFoot  0.775758 -0.515204 4.92877
RightToes  0.00048216 0.542163 -0.142577
Spine  13.5487 -0.861014 -3.81029
Spine1  2.80675 -1.44218 0.268944
HEad  -6.17879 -10.4019 3.84497
LeftShoulder1  7.497 -11.7734 -42.6422
LeftArm  -15.1561 20.8822 -26.8495
LeftForeArm  31.4638 -27.0305 -4.12841
LeftHand  -0.25398 0.0180481 5.50724
RightShoulder  4.8093 8.55651 33.9299
RightArm  -0.802957 -6.84134 33.8769
RightForeArm  19.7608 24.9405 4.29382
RightHand  0.0755542 -6.23137 -10.9268
LeftUpLeg  0.0850038 6.12456 -3.40088
LeftLeg  11.8494 18.6603 -1.81786
LeftFoot  -13.1803 0.0989443 1.30618
LeftToes  1.06246e-005 4.65856e-005 -8.18502e-006
972
root  63.7233 39.559 9.44064 -5.88277 -74.1359 5.82565
RightUpLeg  -22.9185 -8.77046 -2.18293
RightLeg  33.3168 -6.25133 -4.66986
RightFoot  -0.166237 -0.633085 6.44629
RightToes  0.00048216 0.542163 -0.142577
Spine  13.8138 -0.852467 -3.65018
Spine1  2.5894 -1.38341 0.0857806
HEad  -6.79332 -11.2441 4.47401
LeftShoulder1  7.51135 -11.8818 -42.4086
LeftArm  -14.9839 19.4523 -26.5947
LeftForeArm  31.9178 -26.6746 -4.0278
LeftHand  -0.25398 0.0180481 5.50724
RightShoulder  4.82136 8.59553 33.9013
RightArm  0.325281 -6.47583 34.2058
RightForeArm  20.8748 23.2155 3.91282
RightHand  0.0632286 -12.1452 -1.75587
LeftUpLeg  2.49554 5.00535 -3.39594
LeftLeg  10.8906 19.8524 -2.26615
LeftFoot  -14.7271 0.100285 0.394868
LeftToes  1.06246e-005 4.65856e-005 -8.18502e-006
973
root  62.6487 39.397 10.0216 -6.14066 -74.1272 6.22852
RightUpLeg  -23.6548 -12.7813 0.978488
RightLeg  23.5525 -4.34474 -2.4792
RightFoot  -0.41032 -0.689281 7.16266
RightToes  0.00048216 0.542163 -0.142577
Spine  13.5898 -0.913914 -3.90569
Spine1  2.50241 -1.47325 0.209817
HEad  -7.63238 -11.5366 4.64343
LeftShoulder1  7.47695 -11.8988 -42.1511
LeftArm  -14.9891 18.3785 -26.5469
LeftForeArm  32.4362 -26.7314 -4.01322
LeftHand  -0.25398 0.0180481 5.50724
RightShoulder  4.85862 8.67993 33.9306
RightArm  1.32328 -7.38661 34.6792
RightForeArm  20.1582 22.1153 3.90055
RightHand  -0.196759 -13.0814 1.60978
LeftUpLeg  4.88093 4.70433 -3.78308
LeftLeg  9.81771 20.0912 -2.78739
LeftFoot  -16.0143 0.101013 0.100161
LeftToes  1.06246e-005 4.65856e-005 -8.18502e-006
974
root  61.4821 39.1901 10.627 -6.66314 -73.8126 7.01289
RightUpLeg  -24.0755 -15.8692 3.33217
RightLeg  14.1779 -3.50995 0.0314095
RightFoot  -0.376539 -0.664144 6.88342
RightToes  0.00048216 0.542163 -0.142577
Spine  13.0568 -1.05194 -4.18994
Spine1  2.57308 -1.70037 0.596721
HEad  -8.5187 -11.7828 4.61278
LeftShoulder1  7.45748 -11.8898 -42.06
LeftArm  -15.0364 17.5884 -26.5813
LeftForeArm  32.539 -26.9287 -4.05036
LeftHand  -0.25398 0.0180481 5.50724
RightShoulder  4.8977 8.72205 34.1115
RightArm  2.14304 -9.32503 35.0925
RightForeArm  17.8299 21.876 4.04618
RightHand  -0.140766 -11.83 0.917265
LeftUpLeg  7.42158 4.73081 -4.29156
LeftLeg  8.53406 19.9008 -3.31071
LeftFoot  -17.1381 0.118962 0.31835
LeftToes  1.06246e-005 4.65856e-005 -8.18502e-006
975
root  60.2272 38.909 11.2606 -7.32045 -73.2818 7.70356
RightUpLeg  -23.3026 -9.81939 0.819692
RightLeg  6.71554 -11.5569 3.83981
RightFoot  -0.751238 -0.702755 7.52528
RightToes  0.00048216 0.542163 -0.142577
Spine  12.5981 -1.20454 -4.36371
Spine1  2.77988 -1.97531 1.10131
HEad  -9.41778 -12.2216 4.40943
LeftShoulder1  7.44858 -11.8614 -42.0894
LeftArm  -15.2637 16.9032 -26.8609
LeftForeArm  32.3616 -26.9777 -4.07013
LeftHand  -0.25398 0.0180481 5.50724
RightShoulder  4.86984 8.56366 34.4033
RightArm  2.24939 -11.6471 35.4669
RightForeArm  15.5881 22.093 4.15049
RightHand  -0.00958342 -9.59876 -1.67527
LeftUpLeg  10.0789 4.71663 -4.76859
LeftLeg  7.88729 19.3419 -3.55249
LeftFoot  -18.6461 0.104842 -0.0871541
LeftToes  1.06246e-005 4.65856e-005 -8.18502e-006
976
root  58.8857 38.5874 11.9063 -7.82848 -72.4532 7.93557
RightUpLeg  -23.0021 -5.89761 -0.592115
RightLeg  2.60055 -16.0207 5.95154
RightFoot  -1.26822 -0.728549 8.11866
RightToes  0.00048216 0.542163 -0.142577
Spine  12.3587 -1.35757 -4.45904
Spine1  3.04417 -2.32758 1.87372
HEad  -10.3064 -12.8409 3.9964
LeftShoulder1  7.41921 -11.8045 -42.0781
LeftArm  -15.6377 16.4543 -27.5693
LeftForeArm  32.2161 -26.9959 -4.08164
LeftHand  -0.25398 0.0180481 5.50724
RightShoulder  4.76205 8.24187 34.5875
RightArm  1.39177 -13.8896 35.9787
RightForeArm  14.4367 21.8437 4.21872
RightHand  0.0121901 -6.7474 -4.87169
LeftUpLeg  12.6014 4.79765 -4.96624
LeftLeg  8.54197 18.2407 -3.37375
LeftFoot  -20.2025 0.0367728 -1.09495
LeftToes  1.06246e-005 4.65856e-005 -8.18502e-006
